<?xml version="1.0" encoding="iso-8859-1"?>
<!-- Generator: Adobe Illustrator 17.1.0, SVG Export Plug-In . SVG Version: 6.00 Build 0)  -->
<!DOCTYPE svg PUBLIC "-//W3C//DTD SVG 1.1//EN" "http://www.w3.org/Graphics/SVG/1.1/DTD/svg11.dtd">
<svg version="1.1" id="Capa_1" xmlns="http://www.w3.org/2000/svg" xmlns:xlink="http://www.w3.org/1999/xlink" x="0px" y="0px"
	 viewBox="0 0 429.989 429.989" style="enable-background:new 0 0 429.989 429.989;" xml:space="preserve">
<path d="M153.359,159.565c18.697,0,36.255-7.537,49.438-21.223c11.371-11.804,24.635-33.626,23.253-70.551
	c-0.022-0.594-0.137-2.54-0.184-2.932c-3.154-42.893-39.24-63.698-72.159-64.852c-0.234-0.009-0.467-0.009-0.701,0
	c-13.757,0.483-28.067,4.4-40.3,11.922c-0.691,0.337-1.33,0.752-1.915,1.228c-16.737,11.018-29.165,29.06-30.123,54.635
	c-1.382,36.925,11.882,58.747,23.253,70.551C117.103,152.028,134.661,159.565,153.359,159.565z M153.356,20.007
	c23.488,0.946,47.512,14.14,51.992,41.48c-12.811,8.586-29.054,10.659-43.557,5.264c-16.526-6.147-28.465-20.794-33.443-40.694
	C136.103,22.343,144.765,20.353,153.356,20.007z M100.654,68.539c0.457-12.187,4.493-21.956,10.708-29.452
	c7.709,22.281,22.982,38.795,43.458,46.411c7.636,2.84,15.606,4.226,23.542,4.226c9.324,0,18.592-1.931,27.2-5.656
	c-1.759,16.641-7.572,30.435-17.17,40.399c-9.378,9.736-21.82,15.098-35.033,15.098c-13.214,0-25.656-5.362-35.034-15.098
	C105.878,111.546,99.768,92.207,100.654,68.539z M169.411,374.028c-0.006,5.519-4.482,9.998-10,9.998c-0.004,0-0.007,0-0.011,0
	l-108.112-0.12c-2.969-0.003-5.783-1.333-7.681-3.617s-2.682-5.292-2.142-8.212l23.55-127.145
	c5.989-32.341,31.357-55.788,67.861-62.721c18.488-3.511,38.225-2.187,55.567,3.731c19.103,6.519,34.245,18.04,43.792,33.32
	c2.927,4.684,1.502,10.853-3.182,13.78c-4.684,2.926-10.854,1.502-13.779-3.182c-14.121-22.601-46.475-34.114-78.667-28
	c-28.086,5.334-47.498,22.797-51.927,46.714L63.318,363.909l96.104,0.1C164.944,364.015,169.416,368.505,169.411,374.028z
	 M152.987,219.812c5.522,0,10,4.477,10,10v59.543c0,5.523-4.478,10-10,10s-10-4.477-10-10v-59.543
	C142.987,224.289,147.464,219.812,152.987,219.812z M285.575,280.05l-17.96-13.73l-52.628,40.176v61.987
	c0,9.264,8.153,16.542,18.568,16.542h35.787c5.522,0,10,4.477,10,10s-4.478,10-10,10h-35.787c-21.442,0-38.568-16.25-38.568-36.542
	V301.54c0-3.123,1.299-6.066,3.784-7.958l62.628-47.787c3.578-2.724,8.535-2.724,12.113,0l24.097,18.339
	c4.395,3.345,5.246,9.619,1.901,14.014C296.165,282.542,289.972,283.395,285.575,280.05z M342.317,354.428
	c26.004,0,46.374-14.025,46.374-31.93c0-17.904-20.37-31.928-46.374-31.928c-26.007,0-46.379,14.024-46.379,31.928
	C295.938,340.403,316.31,354.428,342.317,354.428z M342.317,310.571c15.854,0,26.374,7.18,26.374,11.928
	c0,4.75-10.52,11.93-26.374,11.93c-15.857,0-26.379-7.18-26.379-11.93C315.938,317.75,326.459,310.571,342.317,310.571z
	 M382.647,369.367c2.765,4.781,1.129,10.898-3.652,13.663c-10.237,5.919-23.263,9.179-36.678,9.179s-26.44-3.26-36.678-9.179
	c-4.781-2.764-6.417-8.881-3.652-13.663s8.881-6.417,13.662-3.652c7.242,4.187,16.713,6.493,26.668,6.493s19.426-2.306,26.668-6.493
	C373.764,362.951,379.882,364.587,382.647,369.367z M382.647,407.146c2.765,4.781,1.13,10.898-3.651,13.663
	c-10.238,5.92-23.265,9.18-36.679,9.18s-26.44-3.26-36.679-9.18c-4.781-2.765-6.416-8.882-3.651-13.663
	c2.765-4.781,8.881-6.416,13.663-3.652c7.242,4.188,16.713,6.495,26.667,6.495s19.425-2.307,26.667-6.495
	C373.765,400.731,379.881,402.365,382.647,407.146z"/>
<g>
</g>
<g>
</g>
<g>
</g>
<g>
</g>
<g>
</g>
<g>
</g>
<g>
</g>
<g>
</g>
<g>
</g>
<g>
</g>
<g>
</g>
<g>
</g>
<g>
</g>
<g>
</g>
<g>
</g>
</svg>
